<svg width="2620" height="153" viewBox="0 0 2620 153" fill="none" xmlns="http://www.w3.org/2000/svg">
<g clip-path="url(#clip0_13_31)">
<path d="M2620 76.088C2618.73 75.807 386 75.288 385.938 75.255C365.029 74.085 339.333 72.555 317.4 79.477C306.659 82.8022 296.379 87.463 286.8 93.35C278.04 98.962 270.6 106.691 260.16 109.974C250.32 113.045 240.6 110.927 231.48 107.115C214.56 100.021 198 91.339 179.16 98.327C162.12 104.574 151.08 119.609 139.32 131.468C129 141.844 116.16 151.48 99.84 152.221C69.24 153.703 52.44 127.127 33.24 110.609C26.1894 104.528 18.5553 99.1582 10.449 94.578C9.881 95.078 0.073 88.064 0 88.056V0H2620V76.088Z" fill="url(#paint0_linear_13_31)"/>
</g>
<defs>
<linearGradient id="paint0_linear_13_31" x1="1310" y1="0" x2="1310" y2="152.28" gradientUnits="userSpaceOnUse">
<stop stop-color="#202125"/>
<stop offset="1" stop-color="#1CE9C3"/>
</linearGradient>
<clipPath id="clip0_13_31">
<rect width="2620" height="152.277" fill="white"/>
</clipPath>
</defs>
</svg>
