<svg width="700" height="239" viewBox="0 0 700 239" fill="none" xmlns="http://www.w3.org/2000/svg">
<path d="M72.0349 116.512C73.0189 109.916 72.3378 101.435 66.0938 99.034C59.2938 96.42 52.9209 103.435 49.0009 109.556C46.9369 107.619 46.0299 104.661 46.1819 101.839C46.6939 92.32 58.9899 86.621 67.7849 90.373C76.5799 94.125 81.2088 104.298 81.1698 113.831C81.1308 123.364 77.3268 132.441 73.3988 141.134C60.0658 170.645 43.6798 200.209 17.3518 219.162C14.1288 221.482 10.4438 223.716 6.48085 223.388C2.51885 223.059 -1.23116 218.867 0.384838 215.247C10.9058 218.902 21.2188 209.741 28.3168 201.184C48.8668 176.406 67.2909 148.306 72.0349 116.512Z" fill="white"/>
<path d="M534.924 195.124C534.539 188.906 525.722 186.602 520.272 189.612C514.822 192.623 511.772 198.522 508.016 203.491C504.261 208.46 498.375 213.042 492.347 211.486C481.941 208.801 482.305 191.907 472.664 187.155C463.792 182.781 454.334 191.612 448.478 199.59C442.622 207.567 433.667 216.681 424.523 212.908C416.122 209.441 415.346 197.213 419.742 189.252C425.097 179.553 436.101 173.264 447.168 173.577C455.856 173.823 462.407 164.81 463.134 156.141C463.861 147.472 460.525 139.06 458.091 130.708C449.791 102.227 452.654 69.046 471.786 46.385C476.317 41.018 482.209 36.093 489.211 35.586C497.161 35.01 504.585 40.472 508.619 47.353C512.652 54.234 513.938 62.342 514.977 70.252C519.772 106.755 520.892 143.741 518.313 180.468C526.675 182.464 532.58 165.062 539.636 169.977C544.205 173.159 540.126 180.137 539.917 185.704C539.647 192.903 547.278 198.462 554.475 198.382C561.671 198.302 568.168 194.157 573.747 189.607C598.255 169.621 612.969 139.65 620.43 108.902C627.89 78.154 628.769 46.251 630.057 14.635C630.287 8.99999 631.288 2.205 636.474 0C645.328 59.077 627.595 118.599 609.033 175.375C607.726 179.375 609.147 186.146 612.99 184.439C637.915 173.37 668.195 175.3 691.515 189.447C694.464 191.236 697.473 193.413 698.656 196.656C701.334 203.993 693.457 210.682 686.4 214.018C666.932 223.221 645.182 227.541 623.678 226.476C615.456 226.069 605.4 223.237 603.855 215.145C603.197 211.697 608.945 208.099 609.2 211.599C609.702 218.512 618.766 220.668 625.688 220.481C647.215 219.9 668.612 214.848 688.129 205.739C689.501 205.099 690.941 204.37 691.716 203.069C693.76 199.631 689.882 195.725 686.364 193.827C660.572 179.911 627.133 181.555 602.827 197.933C598.918 189.212 598.91 178.823 602.806 170.095C593.489 182.429 581.822 192.977 568.618 201.004C562.728 204.584 556.17 207.749 549.29 207.39C542.409 207.031 535.351 202.008 534.924 195.124ZM460.606 92.493C461.61 93.458 462.613 94.424 463.616 95.39C464.687 92.091 465.899 88.584 468.654 86.478C471.409 84.372 476.199 84.626 477.578 87.81C478.205 89.258 477.994 90.916 477.772 92.479C476.334 102.592 474.896 112.705 473.458 122.819C472.317 130.846 471.18 139.059 472.764 147.01C474.964 158.045 482.205 167.439 490.414 175.127C493.836 178.332 497.75 181.449 502.406 181.991C507.061 182.534 512.413 179.384 512.562 174.695C513.685 139.277 514.796 103.631 509.569 68.584C508.637 62.332 507.429 55.916 503.962 50.632C500.496 45.349 494.216 41.434 488.004 42.571C482.026 43.664 477.763 48.901 474.55 54.063C467.299 65.715 462.515 78.898 460.606 92.493ZM470.615 177.382C477.1 180.752 482.572 186.045 486.159 192.417C488.932 197.342 492.432 203.931 497.969 202.817C499.71 202.467 501.188 201.332 502.475 200.107C505.057 197.651 507.159 194.691 508.627 191.443C492.422 188.359 477.94 177.267 470.729 162.418C469.063 164.721 467.563 167.273 467.253 170.099C466.943 172.925 468.094 176.072 470.615 177.382ZM426.201 203.182C427.757 206.367 432.601 204.704 435.378 202.504C443.176 196.326 450.085 189.025 455.825 180.895C443.02 177.277 428.138 186.752 425.984 199.893C425.803 200.996 425.711 202.179 426.201 203.182ZM461.387 101.335C461.249 106.951 461.112 112.591 461.81 118.165C462.134 120.748 463.668 124.053 466.203 123.472C466.829 117.597 467.455 111.722 468.08 105.846C468.311 103.676 468.501 101.315 467.328 99.475C466.155 97.636 463.028 97.001 461.887 98.861C461.441 99.587 461.408 100.483 461.387 101.335Z" fill="white"/>
<path d="M76.4958 173.994C86.5018 176.344 93.4328 185.469 97.9928 194.695C102.553 203.922 105.746 214.037 112.395 221.887C119.044 229.737 130.734 234.705 139.746 229.756C124.166 224.08 119.292 200.351 131.369 188.973C143.446 177.596 166.789 183.925 171.489 199.852C173.306 206.01 172.684 212.797 175.228 218.691C177.772 224.585 185.955 228.878 190.532 224.383C186.597 212.909 190.704 200.389 194.874 188.998C208.66 151.345 223.655 112.543 220.965 72.527C220.586 66.881 230.127 65.773 233.291 70.461C236.455 75.148 235.027 81.426 233.483 86.87C222.43 125.837 211.376 164.805 200.323 203.772C207.645 194.943 217.035 187.847 227.52 183.219C232.638 180.961 238.523 179.288 243.748 181.286C248.972 183.285 252.345 190.419 248.822 194.77C244.312 200.338 249.807 209.679 256.935 210.323C264.063 210.966 270.507 205.291 273.309 198.693C276.111 192.096 276.147 184.708 276.488 177.547C276.829 170.385 277.639 162.89 281.663 156.961C285.667 151.063 295.606 148.063 299.441 154.072C301.34 157.047 300.833 160.939 299.844 164.327C297.96 170.782 294.552 176.784 289.979 181.707C290.91 174.631 291.842 167.556 292.774 160.481C283.077 171.445 280.28 188.056 285.849 201.6C286.871 204.086 288.241 206.571 290.491 208.036C294.499 210.648 299.898 209.21 304.077 206.881C311.577 202.701 317.56 195.855 320.705 187.855C321.77 185.144 322.644 182.13 324.954 180.359C327.265 178.589 331.554 179.288 331.927 182.177C332.545 186.95 339.036 188.061 343.738 187.072C362.298 183.165 375.91 166.212 381.412 148.03C386.914 129.848 385.789 110.407 384.612 91.444C384.313 86.628 392.161 85.283 395.29 88.952C398.419 92.621 397.993 98.041 397.392 102.829C392.66 140.495 387.928 178.16 383.196 215.826C378.417 215.28 377.417 208.823 377.7 204.012C378.349 192.958 378.999 181.904 379.648 170.85C369.151 185.642 351.554 195.122 333.448 195.74C323.77 196.07 316.91 204.797 309.627 211.192C302.345 217.587 289.675 221.433 284.025 213.554C280.74 208.972 273.667 209.508 268.57 211.909C263.474 214.31 258.823 218.114 253.223 218.71C242.042 219.901 233.669 203.962 240.98 195.404C242.887 193.172 240.893 189.404 238.077 188.584C235.261 187.765 232.279 188.932 229.639 190.21C214.834 197.376 202.135 208.845 193.491 222.857C198.97 219.214 205.417 217.048 211.98 216.645C206.186 223.226 200.05 230.049 191.845 233.124C183.641 236.199 172.779 234.079 168.898 226.212C165.864 220.062 155.556 219.719 152.122 225.654C150.069 235.119 138.612 239.521 128.992 238.56C113.427 237.006 99.4648 224.905 95.6928 209.698C91.4908 192.759 76.0988 179.21 58.7908 177.213C66.9308 172.107 75.0708 167 83.2118 161.894C96.8898 153.314 110.735 144.598 121.778 132.808C132.821 121.018 140.929 105.603 140.61 89.439C140.099 63.529 115.588 41.198 89.7188 41.216C63.8498 41.234 40.0958 61.903 34.4368 87.19C29.4508 82.813 31.2878 74.645 34.3778 68.77C46.1528 46.386 71.6698 31.507 96.8008 34.033C121.932 36.559 144.557 57.392 147.561 82.514C149.998 102.897 140.259 123.223 126.235 138.192C112.211 153.161 94.2168 163.685 76.4958 173.994ZM137.211 219.343C140.223 220.575 143.638 219.7 146.769 218.814C151.387 217.507 156.364 215.956 159.152 212.044C161.94 208.131 160.65 201.209 155.915 200.422C154.532 200.192 153.103 200.514 151.72 200.289C150.336 200.063 148.887 198.934 149.11 197.548C149.677 194.021 145.101 191.441 141.716 192.566C138.331 193.69 136.21 197.002 134.634 200.207C133.034 203.459 131.682 206.969 131.811 210.593C131.94 214.216 133.86 217.973 137.211 219.343Z" fill="white"/>
</svg>
